# Blender v2.83.5 OBJ File: ''
# www.blender.org
mtllib test.mtl
o Cube_Cube.001
v -1.000000 -1.000000 1.000000
v -1.000000 1.679979 1.000000
v -1.000000 -0.057664 -1.000000
v -1.000000 1.000000 -1.000000
v 1.000000 -0.412076 1.000000
v 1.000000 1.000000 1.000000
v 1.000000 -1.000000 -1.000000
v 2.022392 1.487973 -1.000000
vt 0.625000 0.000000
vt 0.375000 0.250000
vt 0.375000 0.000000
vt 0.625000 0.250000
vt 0.375000 0.500000
vt 0.625000 0.750000
vt 0.375000 0.750000
vt 0.375000 1.000000
vt 0.125000 0.750000
vt 0.125000 0.500000
vt 0.875000 0.500000
vt 0.625000 0.500000
vt 0.625000 1.000000
vt 0.875000 0.750000
vn -1.0000 0.0000 0.0000
vn 0.0000 0.0000 -1.0000
vn 1.0000 0.0000 0.0000
vn 0.0000 0.0000 1.0000
vn -0.3921 -0.8322 -0.3921
vn -0.1574 0.9749 0.1574
vn 0.8646 -0.3553 0.3553
vn 0.2714 -0.9234 0.2714
vn 0.3064 0.9012 -0.3064
usemtl None
s off
f 2/1/1 3/2/1 1/3/1
f 4/4/2 7/5/2 3/2/2
f 7/5/3 6/6/3 5/7/3
f 6/6/4 1/8/4 5/7/4
f 7/5/5 1/9/5 3/10/5
f 4/11/6 6/6/6 8/12/6
f 2/1/1 4/4/1 3/2/1
f 4/4/2 8/12/2 7/5/2
f 7/5/7 8/12/7 6/6/7
f 6/6/4 2/13/4 1/8/4
f 7/5/8 5/7/8 1/9/8
f 4/11/9 2/14/9 6/6/9
