# Blender v2.83.5 OBJ File: ''
# www.blender.org
mtllib test5.mtl
o Cube_Cube.004
v -1.000000 -1.000000 1.000000
v -1.000000 1.000000 1.000000
v -1.000000 -1.000000 -1.000000
v -1.000000 1.000000 -1.000000
v 1.000000 -1.000000 1.000000
v 1.000000 1.000000 1.000000
v 1.000000 -1.000000 -1.000000
v 1.000000 1.000000 -1.000000
v -1.000000 -1.000000 0.000000
v -1.000000 0.000000 1.000000
v -1.000000 1.000000 0.000000
v -1.000000 0.000000 -1.000000
v 0.000000 -1.000000 -1.000000
v 0.000000 1.000000 -1.000000
v 1.000000 0.000000 -1.000000
v 1.000000 -1.000000 0.000000
v 1.000000 1.000000 0.000000
v 1.000000 0.000000 1.000000
v 0.000000 -1.000000 1.000000
v 0.000000 1.000000 1.000000
v 0.000000 2.111676 0.000000
v 0.000000 -2.031275 0.000000
v 0.000000 0.000000 1.603918
v 1.804578 0.000000 0.000000
v 0.000000 0.000000 -1.884533
v -2.230411 0.000000 0.000000
vt 0.625000 0.125000
vt 0.500000 0.250000
vt 0.500000 0.125000
vt 0.625000 0.375000
vt 0.500000 0.500000
vt 0.500000 0.375000
vt 0.625000 0.625000
vt 0.500000 0.750000
vt 0.500000 0.625000
vt 0.625000 0.875000
vt 0.500000 1.000000
vt 0.500000 0.875000
vt 0.375000 0.625000
vt 0.250000 0.750000
vt 0.250000 0.625000
vt 0.875000 0.625000
vt 0.750000 0.750000
vt 0.750000 0.625000
vt 0.625000 0.750000
vt 0.750000 0.500000
vt 0.625000 0.500000
vt 0.125000 0.625000
vt 0.125000 0.750000
vt 0.250000 0.500000
vt 0.125000 0.500000
vt 0.375000 0.875000
vt 0.375000 1.000000
vt 0.375000 0.750000
vt 0.375000 0.500000
vt 0.375000 0.375000
vt 0.375000 0.250000
vt 0.375000 0.125000
vt 0.500000 0.000000
vt 0.375000 0.000000
vt 0.625000 0.250000
vt 0.625000 1.000000
vt 0.875000 0.750000
vt 0.875000 0.500000
vt 0.625000 0.000000
vn -0.4983 0.6131 -0.6131
vn 0.5523 0.5523 -0.6244
vn 0.6601 0.5311 0.5311
vn -0.4592 0.4592 0.7604
vn 0.5832 -0.5655 0.5832
vn -0.5966 0.5367 0.5966
vn 0.0000 1.0000 0.0000
vn -0.5966 0.5367 -0.5966
vn 0.0000 -1.0000 0.0000
vn 0.5832 -0.5655 -0.5832
vn 0.0000 0.0000 1.0000
vn 0.4592 0.4592 0.7604
vn 1.0000 0.0000 0.0000
vn 0.6601 0.5311 -0.5311
vn 0.0000 0.0000 -1.0000
vn -0.5523 0.5523 -0.6244
vn -1.0000 0.0000 0.0000
vn -0.4983 0.6131 0.6131
vn 0.5966 0.5367 0.5966
vn 0.5966 0.5367 -0.5966
vn -0.5832 -0.5655 0.5832
vn -0.5832 -0.5655 -0.5832
vn -0.4592 -0.4592 0.7604
vn 0.4592 -0.4592 0.7604
vn 0.6601 -0.5311 0.5311
vn 0.6601 -0.5311 -0.5311
vn 0.5523 -0.5523 -0.6244
vn -0.5523 -0.5523 -0.6244
vn -0.4983 -0.6131 -0.6131
vn -0.4983 -0.6131 0.6131
usemtl None
s off
f 11/1/1 12/2/1 26/3/1
f 14/4/2 15/5/2 25/6/2
f 17/7/3 18/8/3 24/9/3
f 20/10/4 10/11/4 23/12/4
f 16/13/5 19/14/5 22/15/5
f 11/16/6 20/17/6 21/18/6
f 17/7/7 20/17/7 6/19/7
f 14/20/7 17/7/7 8/21/7
f 14/20/8 11/16/8 21/18/8
f 9/22/9 19/14/9 1/23/9
f 13/24/9 9/22/9 3/25/9
f 13/24/10 16/13/10 22/15/10
f 19/26/11 10/11/11 1/27/11
f 18/8/11 19/26/11 5/28/11
f 18/8/12 20/10/12 23/12/12
f 16/13/13 18/8/13 5/28/13
f 15/5/13 16/13/13 7/29/13
f 15/5/14 17/7/14 24/9/14
f 13/30/15 15/5/15 7/29/15
f 12/2/15 13/30/15 3/31/15
f 12/2/16 14/4/16 25/6/16
f 9/32/17 12/2/17 3/31/17
f 10/33/17 9/32/17 1/34/17
f 10/33/18 11/1/18 26/3/18
f 11/1/17 4/35/17 12/2/17
f 14/4/15 8/21/15 15/5/15
f 17/7/13 6/19/13 18/8/13
f 20/10/11 2/36/11 10/11/11
f 16/13/9 5/28/9 19/14/9
f 11/16/7 2/37/7 20/17/7
f 17/7/19 21/18/19 20/17/19
f 14/20/20 21/18/20 17/7/20
f 14/20/7 4/38/7 11/16/7
f 9/22/21 22/15/21 19/14/21
f 13/24/22 22/15/22 9/22/22
f 13/24/9 7/29/9 16/13/9
f 19/26/23 23/12/23 10/11/23
f 18/8/24 23/12/24 19/26/24
f 18/8/11 6/19/11 20/10/11
f 16/13/25 24/9/25 18/8/25
f 15/5/26 24/9/26 16/13/26
f 15/5/13 8/21/13 17/7/13
f 13/30/27 25/6/27 15/5/27
f 12/2/28 25/6/28 13/30/28
f 12/2/15 4/35/15 14/4/15
f 9/32/29 26/3/29 12/2/29
f 10/33/30 26/3/30 9/32/30
f 10/33/17 2/39/17 11/1/17
