# Blender v2.83.5 OBJ File: ''
# www.blender.org
mtllib test4.mtl
o Torus
v 4.267919 0.221435 -0.314674
v 4.043339 0.198121 0.997859
v 2.539876 0.509503 0.344591
v 2.727625 0.593258 -1.011775
v 3.812383 -0.011361 -1.376635
v 2.724952 1.470942 1.340381
v 2.615593 2.057662 -1.440700
v 3.522332 2.032470 -0.532888
v 3.040329 2.300225 0.990780
v 1.562671 1.747880 0.336619
v 1.606099 1.906144 -1.056565
v 0.357676 3.018354 1.304134
v 1.077861 3.240759 -1.067724
v 1.154599 3.422136 0.313355
v 0.431944 2.363206 0.933661
v -0.279836 3.535620 -0.101649
v -0.119911 2.111902 -0.414503
v -1.249224 2.563792 -1.467963
v -1.269070 3.172231 1.019825
v -1.270049 3.125601 -1.176221
v -2.357502 2.002822 1.330690
v -1.831287 1.790410 -1.050815
v -2.562912 2.848845 0.288163
v -1.684214 1.671158 0.380707
v -3.448863 1.689493 1.022253
v -2.321253 0.949338 -0.401183
v -3.115061 1.590869 -1.423122
v -3.570561 1.981121 -0.460139
v -2.745415 0.618465 0.991821
v -4.021891 0.381090 -1.072713
v -4.248872 0.252330 0.377963
v -3.678626 -0.366355 1.391104
v -2.841232 -0.717952 -1.045676
v -2.553843 -0.285835 -0.367599
v -2.472668 -1.543900 1.224563
v -3.604725 -1.282872 -1.284134
v -3.944594 -1.375406 0.407854
v -3.013719 -2.163706 1.123288
v -2.134783 -1.218303 0.404589
v -2.504003 -2.861180 -0.325423
v -0.552747 -2.593044 -1.096497
v -1.246192 -2.921962 -1.295653
v -1.535159 -3.038287 1.162001
v 0.237919 -2.712659 1.458717
v -0.669141 -2.097605 -0.296783
v -0.530930 -2.190855 0.742512
v -0.756089 -3.497495 -0.217998
v 0.452723 -3.299452 1.122750
v 1.827714 -3.207830 0.490817
v 1.059320 -1.958415 -0.312372
v 1.520048 -1.833748 0.718975
v 2.293654 -2.413954 -1.312517
v 1.908139 -3.090904 -0.931434
v 2.423246 -1.268325 -0.959787
v 2.930473 -0.740055 1.200248
v 2.304225 -0.961835 0.363889
v 3.558606 -1.982587 0.472696
v 3.067111 -1.773396 1.425234
v 3.959969 -1.280123 -0.388131
vt 0.589341 0.790787
vt 0.450970 0.833333
vt 0.398972 0.690833
vt 0.539785 0.113537
vt 0.625228 0.322822
vt 0.503231 0.327748
vt 0.597530 0.453170
vt 0.508637 0.473949
vt 0.620013 0.613382
vt 0.509356 0.624789
vt 0.664440 0.000000
vt 0.519306 0.000000
vt 0.656085 0.126733
vt 0.706238 0.551407
vt 0.727800 0.659996
vt 0.726688 0.871154
vt 0.704131 0.389624
vt 0.756357 0.037038
vt 0.804466 0.242110
vt 0.859334 0.130228
vt 0.852899 0.536596
vt 0.801387 0.642283
vt 0.760425 0.500000
vt 0.858422 0.941228
vt 0.762077 1.000000
vt 0.833304 0.000000
vt 0.905063 0.460537
vt 0.799973 0.362544
vt 0.928583 0.042461
vt 0.912902 0.318728
vt 0.958725 0.873061
vt 0.873951 0.778044
vt 0.915486 0.633233
vt 0.927026 1.000000
vt 0.976372 0.380039
vt 0.985215 0.541108
vt 0.988966 0.698626
vt 0.988234 0.166667
vt 0.063277 0.540347
vt 0.035822 0.698626
vt 0.005828 0.541108
vt 0.054677 0.144511
vt 0.070462 0.389078
vt 0.000000 0.250000
vt 0.104943 0.833333
vt 0.099715 0.950071
vt 0.004323 0.873061
vt 0.029587 1.000000
vt 0.113245 0.000000
vt 0.023392 0.044073
vt 0.150437 0.453969
vt 0.112671 0.614427
vt 0.207824 0.041013
vt 0.221755 0.166667
vt 0.196596 0.291740
vt 0.187557 0.636825
vt 0.218809 0.916667
vt 0.223068 0.467103
vt 0.325018 0.400783
vt 0.360863 0.297986
vt 0.412083 0.125534
vt 0.261340 0.807406
vt 0.405846 0.540945
vt 0.320707 0.534747
vt 0.441352 0.451936
vt 0.414869 0.000000
vt 0.536271 0.955391
vt 0.650666 0.966694
vt 0.994491 0.044073
vt 1.000000 1.000000
vt 0.009245 0.380039
vt 0.321578 1.000000
vt 0.344820 0.916667
vt 0.216748 1.000000
vt 0.270393 0.613501
vt 0.318191 0.040534
vt 0.426637 0.969462
vn -0.9854 -0.1003 0.1377
vn -0.4437 -0.2830 -0.8503
vn 0.8516 0.2987 -0.4308
vn 0.4288 0.2076 0.8792
vn -0.7762 -0.6135 -0.1453
vn 0.6640 0.3639 -0.6532
vn -0.7551 -0.6484 -0.0972
vn 0.5087 0.8609 0.0096
vn 0.1935 0.3177 0.9282
vn -0.3341 -0.4924 0.8037
vn 0.4728 0.7568 -0.4513
vn -0.1601 -0.9802 -0.1163
vn -0.1014 -0.8054 -0.5840
vn 0.0542 0.3636 -0.9300
vn 0.3703 -0.6412 -0.6721
vn -0.2770 0.9586 0.0662
vn 0.2971 -0.9532 0.0561
vn 0.2207 -0.9698 -0.1035
vn -0.4964 0.8206 -0.2832
vn 0.8094 -0.5726 -0.1308
vn -0.5048 0.6902 -0.5185
vn 0.7029 -0.3487 0.6199
vn -0.7180 0.6694 0.1906
vn 0.3059 -0.6200 -0.7225
vn 0.7188 -0.6931 0.0542
vn -0.7487 0.4105 -0.5205
vn -0.8911 0.4257 0.1569
vn -0.3196 0.2018 0.9258
vn 0.2937 -0.1202 -0.9483
vn 0.6543 -0.3477 0.6716
vn -0.9426 0.3117 -0.1198
vn -0.8988 -0.1605 0.4079
vn 0.3679 -0.1074 -0.9236
vn 0.8892 0.1584 0.4293
vn 0.9351 0.3413 -0.0953
vn -0.9618 -0.1835 -0.2032
vn 0.9053 0.0583 -0.4208
vn -0.6880 -0.7183 0.1037
vn -0.7496 -0.6354 -0.1853
vn 0.5856 0.7245 -0.3636
vn -0.4713 -0.6741 -0.5687
vn -0.5003 -0.8358 0.2263
vn 0.3819 0.7941 0.4727
vn -0.3460 -0.9312 0.1145
vn -0.3036 -0.8909 -0.3377
vn 0.0075 -0.8806 -0.4737
vn 0.0705 -0.5195 -0.8515
vn -0.0910 0.3024 -0.9488
vn -0.0566 0.2053 0.9771
vn 0.5242 -0.7341 0.4317
vn 0.6771 -0.6924 -0.2493
vn 0.8194 -0.2998 0.4886
vn -0.9800 0.1553 -0.1241
vn -0.9796 0.1567 -0.1259
vn 0.3020 0.0567 0.9516
vn -0.9541 -0.1064 0.2801
vn 0.1666 0.2294 -0.9590
vn -0.3022 -0.2892 -0.9083
vn -0.6324 -0.4952 0.5957
vn -0.3858 -0.9011 0.1981
vn 0.4633 0.8750 -0.1407
vn 0.2757 0.7921 0.5445
vn -0.3282 -0.8953 0.3012
vn -0.1912 -0.9596 -0.2066
vn 0.1171 0.9838 -0.1357
vn 0.0189 0.9205 0.3903
vn 0.0184 0.4613 -0.8870
vn -0.0111 0.9541 0.2993
vn -0.0309 0.9430 -0.3313
vn 0.1835 -0.4680 0.8645
vn 0.1759 -0.8839 0.4333
vn -0.3004 0.9500 -0.0857
vn -0.1269 0.3635 0.9229
vn -0.4759 0.7004 0.5319
vn -0.3691 0.5439 0.7536
vn -0.2496 0.4390 -0.8631
vn -0.8008 0.1913 0.5676
vn 0.9067 -0.3646 0.2118
vn 0.9416 -0.1850 -0.2812
vn 0.9529 -0.1727 0.2492
vn 0.2648 0.1361 0.9546
vn -0.3845 0.0209 -0.9229
vn -0.9608 -0.2193 -0.1698
vn -0.7405 -0.3586 0.5683
vn -0.1330 -0.1940 0.9719
vn -0.1719 0.9842 -0.0422
vn 0.2371 0.3698 -0.8983
vn 0.5268 0.8492 0.0363
vn 0.5173 0.8558 0.0080
vn 0.8831 0.4220 0.2052
vn 0.3630 0.8942 0.2619
vn -0.1212 -0.9603 0.2511
vn -0.0500 -0.5100 0.8587
vn 0.0945 -0.9936 0.0616
vn -0.0727 0.8431 -0.5329
vn 0.1311 -0.9886 -0.0739
vn 0.1586 -0.4462 0.8808
vn -0.1206 0.7363 0.6658
vn 0.6424 -0.4231 -0.6390
vn -0.0981 0.6585 -0.7461
vn 0.3360 -0.7005 0.6296
vn -0.4084 0.9066 0.1059
vn 0.5772 -0.8159 -0.0344
vn -0.5941 0.8006 -0.0784
vn -0.6795 0.7003 0.2189
vn -0.5257 0.8171 -0.2365
vn -0.6464 0.7026 0.2977
vn 0.9652 -0.2058 0.1615
vn -0.5160 0.3048 -0.8005
vn -0.3069 0.0236 -0.9515
vn 0.9185 -0.1709 -0.3565
vn -0.8100 0.1372 0.5701
vn 0.1437 0.2136 -0.9663
vn -0.1306 -0.1776 0.9754
vn -0.0790 0.9919 0.0995
vn 0.9055 0.3923 0.1619
vn 0.6587 -0.6173 -0.4302
vn 0.9387 -0.2625 0.2235
usemtl None
s off
f 6/1/1 55/2/1 58/3/1
f 4/4/2 7/5/2 5/6/2
f 5/6/3 8/7/3 1/8/3
f 9/9/4 6/1/4 2/10/4
f 10/11/5 4/4/5 3/12/5
f 7/5/6 8/7/6 5/6/6
f 10/11/7 11/13/7 4/4/7
f 14/14/8 9/9/8 8/7/8
f 9/9/9 12/15/9 6/1/9
f 12/15/10 15/16/10 6/1/10
f 13/17/11 8/7/11 7/5/11
f 10/11/12 17/18/12 11/13/12
f 11/13/13 18/19/13 7/5/13
f 18/19/14 13/17/14 7/5/14
f 22/20/15 18/19/15 17/18/15
f 23/21/16 19/22/16 16/23/16
f 24/24/17 17/25/17 15/16/17
f 24/26/18 22/20/18 17/18/18
f 28/27/19 23/21/19 20/28/19
f 26/29/20 22/20/20 24/26/20
f 27/30/21 28/27/21 20/28/21
f 29/31/22 24/24/22 21/32/22
f 28/27/23 25/33/23 23/21/23
f 22/20/24 27/30/24 18/19/24
f 29/31/25 26/34/25 24/24/25
f 27/30/26 30/35/26 28/27/26
f 28/27/27 31/36/27 25/33/27
f 32/37/28 21/32/28 25/33/28
f 33/38/29 27/30/29 22/20/29
f 32/37/30 29/31/30 21/32/30
f 30/35/31 31/36/31 28/27/31
f 37/39/32 32/40/32 31/41/32
f 33/42/33 36/43/33 27/44/33
f 35/45/34 39/46/34 29/47/34
f 39/46/35 34/48/35 29/47/35
f 36/43/36 37/39/36 31/41/36
f 39/49/37 33/42/37 34/50/37
f 40/51/38 38/52/38 37/39/38
f 40/51/39 37/39/39 36/43/39
f 45/53/40 41/54/40 33/42/40
f 42/55/41 40/51/41 36/43/41
f 40/51/42 43/56/42 38/52/42
f 35/45/43 46/57/43 39/46/43
f 47/58/44 43/56/44 40/51/44
f 42/55/45 47/58/45 40/51/45
f 53/59/46 47/58/46 42/55/46
f 42/55/47 52/60/47 53/59/47
f 54/61/48 52/60/48 41/54/48
f 58/3/49 55/2/49 44/62/49
f 57/63/50 58/3/50 49/64/50
f 59/65/51 57/63/51 53/59/51
f 57/63/52 2/10/52 58/3/52
f 3/12/53 54/61/53 56/66/53
f 3/12/54 4/4/54 54/61/54
f 2/10/55 6/1/55 58/3/55
f 55/2/56 6/1/56 3/67/56
f 42/55/57 33/42/57 41/54/57
f 4/4/58 11/13/58 7/5/58
f 6/1/59 10/68/59 3/67/59
f 6/1/60 15/16/60 10/68/60
f 13/17/61 14/14/61 8/7/61
f 14/14/62 12/15/62 9/9/62
f 15/16/63 17/25/63 10/68/63
f 17/18/64 18/19/64 11/13/64
f 13/17/65 16/23/65 14/14/65
f 14/14/66 19/22/66 12/15/66
f 18/19/67 20/28/67 13/17/67
f 16/23/68 19/22/68 14/14/68
f 13/17/69 20/28/69 16/23/69
f 12/15/70 21/32/70 15/16/70
f 21/32/71 24/24/71 15/16/71
f 20/28/72 23/21/72 16/23/72
f 19/22/73 21/32/73 12/15/73
f 23/21/74 25/33/74 19/22/74
f 19/22/75 25/33/75 21/32/75
f 18/19/76 27/30/76 20/28/76
f 31/36/77 32/37/77 25/33/77
f 26/29/78 33/38/78 22/20/78
f 26/29/79 34/69/79 33/38/79
f 29/31/80 34/70/80 26/34/80
f 32/40/81 35/45/81 29/47/81
f 27/44/82 36/43/82 30/71/82
f 30/71/83 36/43/83 31/41/83
f 37/39/84 38/52/84 32/40/84
f 38/52/85 44/62/85 32/40/85
f 50/72/86 46/57/86 51/73/86
f 32/40/87 44/62/87 35/45/87
f 39/49/88 45/53/88 33/42/88
f 46/57/89 45/74/89 39/46/89
f 2/10/90 8/7/90 9/9/90
f 35/45/91 44/62/91 46/57/91
f 47/58/92 48/75/92 43/56/92
f 43/56/93 48/75/93 44/62/93
f 47/58/94 49/64/94 48/75/94
f 45/53/95 50/76/95 41/54/95
f 53/59/96 49/64/96 47/58/96
f 48/75/97 58/3/97 44/62/97
f 44/62/98 51/73/98 46/57/98
f 59/65/99 52/60/99 5/6/99
f 41/54/100 52/60/100 42/55/100
f 49/64/101 58/3/101 48/75/101
f 50/76/102 54/61/102 41/54/102
f 53/59/103 57/63/103 49/64/103
f 44/62/104 55/2/104 51/73/104
f 51/73/105 56/77/105 50/72/105
f 56/66/106 54/61/106 50/76/106
f 55/2/107 56/77/107 51/73/107
f 2/10/108 59/65/108 1/8/108
f 54/61/109 5/6/109 52/60/109
f 54/61/110 4/4/110 5/6/110
f 5/6/111 1/8/111 59/65/111
f 55/2/112 3/67/112 56/77/112
f 42/55/113 36/43/113 33/42/113
f 38/52/114 43/56/114 44/62/114
f 50/72/115 45/74/115 46/57/115
f 2/10/116 1/8/116 8/7/116
f 59/65/117 53/59/117 52/60/117
f 2/10/118 57/63/118 59/65/118
